<svg xmlns="http://www.w3.org/2000/svg" viewBox="0 0 593.14 593.14"><defs><style>.cls-1{fill:#0668b3;}.cls-2,.cls-8{fill:#fff;}.cls-3,.cls-4,.cls-5,.cls-6,.cls-7{fill:none;stroke-miterlimit:10;}.cls-3,.cls-4,.cls-5{stroke:#fff;}.cls-3{stroke-width:4.52px;}.cls-4{stroke-width:0.73px;}.cls-5{stroke-width:0.83px;}.cls-6{stroke:#f77511;}.cls-6,.cls-7{stroke-width:12px;}.cls-7{stroke:#fbb03b;}.cls-8{font-size:40.23px;font-family:Tahoma;}.cls-9{letter-spacing:0em;}.cls-10{letter-spacing:0em;}.cls-11{letter-spacing:0em;}.cls-12{letter-spacing:-0.01em;}</style></defs><g id="Layer_2" data-name="Layer 2"><g id="Layer_1-2" data-name="Layer 1"><rect class="cls-1" width="593.14" height="593.14"/><path class="cls-2" d="M488.23,417.21h-353v-353H278.4c115.89,0,209.83,94,209.83,209.84ZM281.46,80.43h-130V401H376.08A96,96,0,0,0,472,305.05V271C472,165.75,386.7,80.43,281.46,80.43Z"/><line class="cls-3" x1="151.39" y1="153.89" x2="127.14" y2="153.89"/><line class="cls-3" x1="151.39" y1="116.93" x2="127.14" y2="116.93"/><line class="cls-3" x1="151.39" y1="190.84" x2="127.14" y2="190.84"/><line class="cls-3" x1="151.39" y1="227.8" x2="127.14" y2="227.8"/><line class="cls-3" x1="151.39" y1="264.75" x2="127.14" y2="264.75"/><line class="cls-3" x1="149.47" y1="301.71" x2="125.22" y2="301.71"/><line class="cls-3" x1="149.47" y1="338.66" x2="125.22" y2="338.66"/><line class="cls-3" x1="149.47" y1="375.62" x2="125.22" y2="375.62"/><line class="cls-3" x1="402.92" y1="427.88" x2="402.92" y2="403.64"/><line class="cls-3" x1="329.02" y1="427.88" x2="329.02" y2="403.64"/><line class="cls-3" x1="255.11" y1="425.97" x2="255.11" y2="401.72"/><line class="cls-3" x1="181.2" y1="425.97" x2="181.2" y2="401.72"/><line class="cls-4" x1="151.39" y1="154.06" x2="421.36" y2="154.06"/><line class="cls-4" x1="150.46" y1="191.23" x2="443.16" y2="191.23"/><line class="cls-4" x1="149.94" y1="227.89" x2="462.26" y2="227.89"/><line class="cls-4" x1="148.09" y1="265.07" x2="472.68" y2="265.07"/><line class="cls-4" x1="149.34" y1="301.32" x2="479.65" y2="301.32"/><line class="cls-4" x1="149.34" y1="338.49" x2="483.74" y2="338.49"/><line class="cls-4" x1="149.34" y1="375.72" x2="479.65" y2="375.72"/><line class="cls-4" x1="149.34" y1="116.7" x2="375.82" y2="116.7"/><line class="cls-5" x1="181.25" y1="402.17" x2="181.25" y2="70.67"/><line class="cls-5" x1="255.32" y1="402.17" x2="255.32" y2="77.15"/><line class="cls-5" x1="329.4" y1="404.02" x2="329.4" y2="90.11"/><line class="cls-5" x1="402.56" y1="404.02" x2="402.56" y2="130.86"/><circle class="cls-2" cx="276.45" cy="382.62" r="4.34"/><circle class="cls-2" cx="329.04" cy="341.22" r="4.34"/><circle class="cls-2" cx="353.65" cy="284.15" r="4.34"/><circle class="cls-2" cx="250.72" cy="296.46" r="4.34"/><circle class="cls-2" cx="384.21" cy="272.38" r="4.34"/><circle class="cls-2" cx="339.45" cy="244.41" r="4.34"/><circle class="cls-2" cx="359.59" cy="206.37" r="4.34"/><circle class="cls-2" cx="208.54" cy="301.48" r="4.34"/><circle class="cls-2" cx="362.95" cy="144.83" r="4.34"/><circle class="cls-2" cx="362.95" cy="252.24" r="4.34"/><circle class="cls-2" cx="386.45" cy="150.43" r="4.34"/><circle class="cls-2" cx="275.68" cy="354.06" r="4.34"/><circle class="cls-2" cx="421.13" cy="244.41" r="4.34"/><circle class="cls-2" cx="364.07" cy="178.4" r="4.34"/><circle class="cls-2" cx="330.5" cy="311.55" r="4.34"/><circle class="cls-2" cx="321.55" cy="198.54" r="4.34"/><circle class="cls-2" cx="289.1" cy="246.65" r="4.34"/><circle class="cls-2" cx="334.98" cy="280.22" r="4.34"/><circle class="cls-2" cx="315.96" cy="366.37" r="4.34"/><circle class="cls-2" cx="372.68" cy="228.21" r="4.34"/><circle class="cls-2" cx="236.17" cy="279.68" r="4.34"/><circle class="cls-2" cx="182.46" cy="302.06" r="4.34"/><circle class="cls-2" cx="237.64" cy="251.13" r="4.34"/><circle class="cls-2" cx="301.41" cy="288.05" r="4.34"/><circle class="cls-2" cx="305.89" cy="219.8" r="4.34"/><circle class="cls-2" cx="267.85" cy="236.58" r="4.34"/><circle class="cls-2" cx="285.75" cy="170.57" r="4.34"/><circle class="cls-2" cx="244.35" cy="223.15" r="4.34"/><circle class="cls-2" cx="271.2" cy="190.71" r="4.34"/><circle class="cls-2" cx="201.83" cy="243.29" r="4.34"/><circle class="cls-2" cx="201.83" cy="355.18" r="4.34"/><circle class="cls-2" cx="285.75" cy="316.02" r="4.34"/><circle class="cls-2" cx="330.5" cy="149.31" r="4.34"/><circle class="cls-2" cx="236.52" cy="354.06" r="4.34"/><circle class="cls-2" cx="169.38" cy="289.17" r="4.34"/><circle class="cls-2" cx="191.76" cy="267.91" r="4.34"/><circle class="cls-2" cx="412.18" cy="232.1" r="4.34"/><circle class="cls-2" cx="204.07" cy="375.32" r="4.34"/><circle class="cls-2" cx="257.78" cy="341.76" r="4.34"/><path class="cls-6" d="M379.26,158.2c-6.72,0-35.3-1.31-47,1.42a57.32,57.32,0,0,0-23.08,11.77c-11.87,9.77-15.19,19.75-29.81,55.23-13.37,32.4-16.81,39.13-25.15,46-11.2,9.25-23.84,12.71-28,13.8-14.26,3.76-48.36,3.08-54,2.66"/><path class="cls-7" d="M419.54,238.76c-6.72,0-35.3-1.31-47,1.42A57.32,57.32,0,0,0,349.46,252c-11.87,9.77-15.19,19.75-29.81,55.23-13.37,32.4-16.81,39.13-25.15,46-11.2,9.25-23.84,12.71-28,13.8-14.26,3.76-48.36,3.08-54,2.66"/><path class="cls-2" d="M173.55,465.81a.21.21,0,0,0-.23-.19.22.22,0,0,0-.24.19v81.85a.22.22,0,0,0,.24.19.21.21,0,0,0,.23-.19Z"/><path class="cls-2" d="M62.26,487.36v-5a3.9,3.9,0,0,0-.06-.69,5.62,5.62,0,0,0,.69.05h3.8c2.9,0,4.59.45,4.59,3.08,0,1.7-1,3.23-4.47,3.23H62.89a6.67,6.67,0,0,0-.68,0A5,5,0,0,0,62.26,487.36Zm0,11.57V493.1a4.22,4.22,0,0,0,0-.67,6.67,6.67,0,0,0,.68,0h3.22c2.56,0,5.69,0,5.69,3.55,0,2.62-2.24,3.55-5.26,3.55H62.89a6.35,6.35,0,0,0-.67,0A6.67,6.67,0,0,0,62.26,498.93Zm-9.21-20.37v24.26c0,.79,0,1.07-.52,1.42a5.15,5.15,0,0,1-2,.54h0c-.1,0-.08.37,0,.37H70.16c8.28,0,11.76-3.29,11.76-8.41,0-3.79-1.77-6.1-5.26-7a.06.06,0,0,1,0-.11c2.23-.69,4.27-2.31,4.27-6.25,0-5.35-3.61-7.16-11.49-7.16H50.54c-.09,0-.11.34,0,.36h0a5.57,5.57,0,0,1,2,.55C53.1,477.5,53.05,477.77,53.05,478.56Z"/><path class="cls-2" d="M151.94,478.56c0-.79,0-1.06.51-1.41a5.63,5.63,0,0,1,2-.55h0c.09,0,.08-.36,0-.36H140c-.09,0-.11.34,0,.36h0a4.19,4.19,0,0,1,1.88.55c.56.35.51.62.51,1.41v14.58c0,3.32-1.9,5.88-5.68,5.88s-5.69-2.56-5.69-5.88V478.57c0-.79,0-1.07.51-1.42a4.66,4.66,0,0,1,1.89-.55h0c.1,0,.08-.36,0-.36H119.73c-.1,0-.07.34,0,.36h0a1.74,1.74,0,0,1,1.14.33c.46.38.54.84.54,1.63V492.9c0,6.9,3.78,12.77,15.26,12.77s15.25-5.87,15.25-12.77Z"/><path class="cls-2" d="M108.07,505.15c.09,0,.11-.34,0-.36h0a5.26,5.26,0,0,1-2-.54c-.56-.35-.51-.63-.51-1.42v-9.2l10-14.87a7,7,0,0,1,1.35-1.61c.08-.07.27-.19.37-.27a2,2,0,0,1,1.08-.27h0c.1,0,.12-.36,0-.36H104.91c-.11,0-.1.35,0,.36h0c.65,0,1.46,0,1.33.95s-4,6.53-5.35,8.67a2.52,2.52,0,0,0-.42,1,2.44,2.44,0,0,0-.45-1c-1.94-2.89-5.24-7.54-5.33-8.69-.08-1,.67-.95,1.33-.95h0c.09,0,.12-.36,0-.36H81.89c-.08,0-.07.33,0,.36h0a3.81,3.81,0,0,1,1.64.37,2.05,2.05,0,0,1,.36.24,6.64,6.64,0,0,1,1.28,1.54l10,14.8v9.27c0,.79,0,1.07-.51,1.42a5.15,5.15,0,0,1-2,.54,0,0,0,0,0,0,0c-.1,0-.08.36,0,.36Z"/><path class="cls-2" d="M79.85,533.64c-1.93,1.94-4.06,2.77-7.65,2.77-1.24,0-3.23,0-4.27,0s-2.32,0-3.56,0c-.08,0-.11-.33,0-.36a4.71,4.71,0,0,0,1.91-.47c.37-.2.58-.68.58-6.2v-4.1c0-5.52-.21-6-.58-6.2a4.66,4.66,0,0,0-1.91-.48c-.14,0-.11-.36,0-.36,1.24,0,2.52.06,3.56.06s3.62-.06,4.89-.06c5.63,0,9.7,3.78,9.7,8.87A9.38,9.38,0,0,1,79.85,533.64ZM72,519.17c-1.69,0-2.39.22-2.59.47S69,521.1,69,525.19v4.19c0,3.59.25,5,.61,5.39s1.15.72,2.61.72c5.5,0,8-2.61,8-7.88C80.19,523.32,77.3,519.17,72,519.17Z"/><path class="cls-2" d="M98.31,536.41c-.08,0-.12-.33,0-.36.87-.08,1.4-.25,1.4-.67s-.36-1.74-2-5.78H91.94c-1.32,3.61-1.62,5-1.62,5.59s.39.75,1.59.86c.12,0,.09.36,0,.36H86.17c-.09,0-.14-.33,0-.36a3.63,3.63,0,0,0,1.76-.53c.28-.23.78-.62,2.81-6.14l1.49-4.1c.86-2.35,1.79-4.79,2.49-7,0-.2.9-.2,1,0,.85,2.43,1.58,4.43,2.56,7l1.59,4.1c2.19,5.52,2.56,5.94,3,6.2a3.49,3.49,0,0,0,1.68.47c.11,0,.09.36,0,.36Zm-3.48-14.72-2.47,6.76h5Z"/><path class="cls-2" d="M121.22,536.41c-.11,0-.11-.33,0-.36a4.61,4.61,0,0,0,1.91-.47c.33-.2.59-.68.59-6.2v-1.74h-10.6v1.74c0,5.52.25,6,.58,6.2a4.71,4.71,0,0,0,1.91.47c.14,0,.14.36.06.36h-7.12c-.09,0-.12-.33,0-.36a4.66,4.66,0,0,0,1.91-.47c.36-.2.59-.68.59-6.2v-4.1c0-5.52-.23-6-.59-6.2a4.61,4.61,0,0,0-1.91-.48c-.14,0-.11-.36,0-.36h7.12c.08,0,.08.34-.06.36a4.66,4.66,0,0,0-1.91.48c-.33.17-.58.68-.58,6.2v1.31h10.6v-1.31c0-5.52-.26-6-.59-6.2a4.56,4.56,0,0,0-1.91-.48c-.14,0-.14-.36,0-.36h7.1c.11,0,.11.34,0,.36a4.72,4.72,0,0,0-1.92.48c-.33.17-.58.68-.58,6.2v4.1c0,5.52.25,6,.58,6.2a4.77,4.77,0,0,0,1.92.47c.13,0,.13.36,0,.36Z"/><path class="cls-2" d="M143.36,536.58a8.86,8.86,0,0,1-9.15-9,9.48,9.48,0,0,1,9.54-9.48,8.85,8.85,0,0,1,9.14,9A9.45,9.45,0,0,1,143.36,536.58Zm-.15-17.47c-5,0-6.67,4-6.67,7.63,0,4.58,2.88,8.8,7.37,8.8,5,0,6.64-4,6.64-7.63C150.55,523.35,147.7,519.11,143.21,519.11Z"/><path class="cls-2" d="M50.48,511.45a.23.23,0,0,0-.23.23.23.23,0,0,0,.23.24H151.33a.24.24,0,0,0,.24-.24.23.23,0,0,0-.24-.23Z"/><path class="cls-2" d="M50.46,536.41c-.09,0-.09-.34,0-.36a5.9,5.9,0,0,0,2.16-.49c.34-.19.59-.66.59-6.18v-4.1c0-5.52-.25-6-.59-6.2a6.43,6.43,0,0,0-2.16-.48c-.12,0-.12-.36,0-.36H58c.09,0,.11.34,0,.36a6.2,6.2,0,0,0-2.13.48c-.36.17-.61.68-.61,6.2v4.1c0,5.52.25,6,.61,6.18a5.7,5.7,0,0,0,2.13.49c.14,0,.12.36,0,.36Z"/><text class="cls-8" transform="translate(187.93 521.89)">Data <tspan class="cls-9" x="95.54" y="0">S</tspan><tspan class="cls-10" x="118.03" y="0">cience </tspan><tspan class="cls-11" x="241.69" y="0">S</tspan><tspan x="264.18" y="0">ocie</tspan><tspan class="cls-12" x="334.96" y="0">t</tspan><tspan x="348.02" y="0">y</tspan></text></g></g></svg>