<svg xmlns="http://www.w3.org/2000/svg" viewBox="0 0 1727.93 863.7"><defs><style>.cls-1{fill:#f4843f;}.cls-2{fill:#221f1f;}.cls-3{fill:#fff;}</style></defs><g id="Layer_2" data-name="Layer 2"><g id="Layer_2-2" data-name="Layer 2"><rect class="cls-1" x="0.54" width="1727.39" height="863.7"/><path class="cls-2" d="M1197.48,140.67h-44.69c-12,0-21.72,7.61-21.72,17v23.54l-34.34,15.53V122.19c0-20.55-21.25-37.18-47.45-37.18H677.58c-26.18,0-47.44,16.63-47.44,37.18v74.17l-32.72-14.8V157.7c0-9.42-9.73-17-21.74-17H531c-12,0-21.74,7.61-21.74,17v51.57c0,9.4,9.73,17,21.74,17h44.69c12,0,21.74-7.63,21.74-17V198.38l32.72,14.8v18.26h9.65c-32.69,0-59.22,20.76-59.22,46.39V381.28h568.21V277.83c0-25.63-26.51-46.39-59.2-46.39h7.15V213.59l34.34-15.54v11.22c0,9.4,9.71,17,21.72,17h44.69c12,0,21.74-7.63,21.74-17V157.7C1219.22,148.28,1209.49,140.67,1197.48,140.67ZM669.59,124.35c0-8.48,8.77-15.36,19.61-15.36h351c10.83,0,19.6,6.88,19.6,15.36V231.44H669.59Zm56.32,226.28H616.2V320.4c0-11.21,11.59-20.29,25.9-20.29h83.81Zm66.57,10.7H775.3V300.11h17.18Zm60.2,0H835.51V289.4h17.17Zm54.65,0H890.15V289.4h17.18Zm57.45,0H947.62V300.11h17.16ZM1100,300.11c12.87,0,23.32,8.19,23.32,18.27v32.25h-110V300.11Z"/><path class="cls-2" d="M1593.07,695.13H135.41l.29-1c95.21-28.86,164.44-116.73,164.44-220.66a228.76,228.76,0,0,0-49.37-142.21H1474.49a228.76,228.76,0,0,0-49.37,142.21C1425.12,578.62,1496.05,667.38,1593.07,695.13Z"/><path class="cls-3" d="M372.54,467.41c19.16,3.86,32.44,5.37,47.63,5.37,3.83,0,5.87-1.68,5.87-5,0-2.85-1.4-3.86-6-3.86h-7.15a160.18,160.18,0,0,1-16.09-1.34c-10.72-1.52-17.23-5.38-21.57-12.77-3.32-5.54-5-12.93-5-21.49,0-12.77,3.44-23,10.08-29.56,7.54-7.39,22.6-11.59,42.39-11.59a183.49,183.49,0,0,1,44.95,5.54v32.92c-6.51-1.51-24-3.53-34.35-3.86h-9.57c-5.88,0-8.18,1.51-8.18,5,0,2.86,1.79,4.54,4.73,4.54l15.32.17c8.81.16,17,1.68,22,4.2,8.05,4,13.41,15.11,13.41,27.87,0,12.26-5,23.68-13.28,30.57-8.94,7.39-18.39,9.74-37.92,9.74-17.24,0-29-1.35-47.25-5.71Z"/><path class="cls-3" d="M592.67,500a154.52,154.52,0,0,1-37.29,3.86c-24,0-36.39-3.53-46.35-13.1-10.21-9.74-16.34-27-16.34-46.18,0-18.48,5.87-35.1,15.58-44.34,9.19-8.73,22.34-13.1,39.84-13.1,13.4,0,28.21,1.68,46.09,5.21l-.13,43.83c-12.89-2.86-23.11-4.2-32.68-4.2-16.35,0-22.73,4.87-22.73,17.47,0,11.92,6.25,16.29,23.49,16.29a100,100,0,0,0,30.52-4.54Z"/><path class="cls-3" d="M687.15,501.5V466.73h-22V501.5h-43.8v-112h43.8v39.64h22V389.48h43.79v112Z"/><path class="cls-3" d="M837.94,501.5l-10.73-51.06L816.36,501.5H774.61l-23.88-112h44l8.81,55.42,10.22-55.42h28.85l9.45,53.57,9.07-53.57h43.15l-23.62,112Z"/><path class="cls-3" d="M992.43,501.5l-3.06-14.45H960.89l-3.06,14.45H913.14l27.2-112h69.33l26.81,112Zm-17-80.45-9.19,35.44h18Z"/><path class="cls-3" d="M1057.42,389.48h87.08c8.17,0,13.28,2,17.87,6.89,4.6,5,7.15,12.09,7.15,19.81,0,9.07-3.31,17.3-9.19,22.51-4,3.52-7.28,5.2-14.3,7.22,7.28.84,10.47,1.85,14.43,4.53,6,3.7,9.7,11.93,9.7,21.16,0,18.14-12.51,29.9-31.79,29.9h-80.95Zm60.14,46.19c6,0,8.17-2.19,8.17-8.4,0-6-2.17-8.23-8.17-8.23h-16.35v16.63Zm2.17,39c5.36,0,7.53-2.35,7.53-8.23s-2-8.23-7.53-8.23h-18.52v16.46Z"/><path class="cls-3" d="M1211.27,424.41h-21.58l10.09-39.63H1227Z"/><path class="cls-3" d="M1246.64,467.41c19.15,3.86,32.43,5.37,47.62,5.37,3.84,0,5.88-1.68,5.88-5,0-2.85-1.41-3.86-6-3.86H1287a159.94,159.94,0,0,1-16.09-1.34c-10.73-1.52-17.24-5.38-21.58-12.77-3.32-5.54-5-12.93-5-21.49,0-12.77,3.45-23,10.09-29.56,7.53-7.39,22.6-11.59,42.39-11.59a183.41,183.41,0,0,1,44.94,5.54v32.92c-6.51-1.51-24-3.53-34.34-3.86h-9.58c-5.87,0-8.17,1.51-8.17,5,0,2.86,1.79,4.54,4.72,4.54l15.32.17c8.82.16,17,1.68,22,4.2,8,4,13.4,15.11,13.4,27.87,0,12.26-5,23.68-13.28,30.57-8.93,7.39-18.38,9.74-37.92,9.74-17.24,0-29-1.35-47.24-5.71Z"/><path class="cls-3" d="M564.54,539.28a62.06,62.06,0,0,1,18.74-3.37c12.61,0,19.26,9.24,19.26,19.17,0,6.13-3.46,14.94-13.21,17.62l12.09,24.61h-8.9l-11.31-23.57h-8.47v23.57h-8.2ZM582.24,567c7.86,0,11.84-5.44,11.84-11.92,0-6.22-2.94-12.09-10.89-12.09a36,36,0,0,0-10.45,1.56V567Z"/><path class="cls-3" d="M611.27,569.85c0-9.5,6.47-18.14,17.79-18.14s18,9.07,18,18.14v5.27a1.86,1.86,0,0,1-1.9,1.9H619.21v3.28c0,4.92,2.16,11.23,10.71,11.23a44.51,44.51,0,0,0,13.3-2.33l1.64,6.47A47,47,0,0,1,630,598.44c-12.7,0-18.74-8.9-18.74-18.14Zm27.8,1.3v-1.73c0-5.1-2.59-10.8-9.93-10.8s-9.93,5.7-9.93,10.8v1.73Z"/><path class="cls-3" d="M658.34,534.61h7.94v53.55c0,2.68.78,3.37,2.59,3.63l-1.55,6.47c-5-.51-9-2.24-9-9.24Z"/><path class="cls-3" d="M679.06,540.4a4.84,4.84,0,0,1,9.68,0,4.84,4.84,0,0,1-9.68,0Zm.87,12.44h7.94v42.57a1.76,1.76,0,0,1-1.9,1.9h-6Z"/><path class="cls-3" d="M725.7,593A17.58,17.58,0,0,1,713,598.44c-8.9,0-14.34-5.36-14.34-13.48,0-9.58,8.12-13.21,19.43-13.21h6.65v-3.11c0-6.65-2.33-10-9.33-10a38,38,0,0,0-12,2.08l-1.81-6.48a43.07,43.07,0,0,1,13.81-2.51c11.66,0,17.28,6.65,17.28,16v29.62h-6.39Zm-1-15.2h-6c-7,0-12,1.46-12,7.08,0,4.06,2.42,6.65,7.52,6.65A15.65,15.65,0,0,0,724.75,587Z"/><path class="cls-3" d="M745.74,534.61h8v21.77c3.88-3,7.51-4.67,11.74-4.67,10.11,0,16.24,6.65,16.24,18v10.71c0,11.23-6.13,18-16.24,18-4.49,0-8.29-1.73-12.52-5.27l-.61,4.14h-6.56Zm8,52.17c3.19,2.59,6.65,4.75,10.62,4.75,6.56,0,9.24-4,9.24-12.44v-8c0-8.46-2.68-12.44-9.24-12.44-4,0-7.08,2.16-10.62,4.93Z"/><path class="cls-3" d="M793.42,534.61h7.94v53.55c0,2.68.78,3.37,2.59,3.63l-1.55,6.47c-5-.51-9-2.24-9-9.24Z"/><path class="cls-3" d="M813.28,569.85c0-9.5,6.48-18.14,17.79-18.14s18,9.07,18,18.14v5.27a1.87,1.87,0,0,1-1.9,1.9H821.23v3.28c0,4.92,2.15,11.23,10.71,11.23a44.39,44.39,0,0,0,13.29-2.33l1.65,6.47A47.12,47.12,0,0,1,832,598.44c-12.69,0-18.74-8.9-18.74-18.14Zm27.81,1.3v-1.73c0-5.1-2.59-10.8-9.93-10.8s-9.93,5.7-9.93,10.8v1.73Z"/><path class="cls-3" d="M882.11,537h16.67c13.22,0,20.39,8.72,20.39,19,0,10.45-7.17,19-20.39,19h-8.46v22.28h-8.21ZM898.61,568c8.64,0,12.09-6,12.09-11.92s-3.45-11.92-12.18-11.92h-8.2V568Z"/><path class="cls-3" d="M929.88,534.61h7.94v53.55c0,2.68.78,3.37,2.59,3.63l-1.55,6.47c-5-.51-9-2.24-9-9.24Z"/><path class="cls-3" d="M949.74,571.41c0-12,6.91-19.7,18.57-19.7S987,559.4,987,571.41v7.34c0,12.09-7,19.69-18.65,19.69s-18.57-7.6-18.57-19.69Zm8,6.64c0,8.38,2.77,13.48,10.54,13.48s10.54-5.1,10.54-13.48V572.1c0-8.21-2.68-13.48-10.54-13.48s-10.54,5.27-10.54,13.48Z"/><path class="cls-3" d="M994,552.84h8.38l5.44,23.49c.69,3.19,1.56,7.86,2.25,11.92.86-4.06,2-8.73,2.93-11.92l5.88-20.56h8.72l5.87,20.56c1,3.19,2,7.94,2.85,12.09.69-4.15,1.56-8.9,2.33-12.09l5.45-23.49h8.37L1041,597.31h-8.9l-8.89-31.6-8.81,31.6h-8.9Z"/><path class="cls-3" d="M1060.73,540.4a4.84,4.84,0,0,1,9.67,0,4.84,4.84,0,0,1-9.67,0Zm.86,12.44h8v42.57a1.77,1.77,0,0,1-1.9,1.9h-6.05Z"/><path class="cls-3" d="M1083,552.84h6.56l.52,4.4c4.23-3.45,8.55-5.53,13-5.53,9.59,0,14.6,5.88,14.6,15v28.67a1.77,1.77,0,0,1-1.9,1.9h-6v-29.1c0-6.39-2-9.59-8-9.59-3.89,0-7.25,2.08-10.8,5v33.68H1083Z"/><path class="cls-3" d="M1136.73,607.85h13.13c4.66,0,7.17-3.11,7.17-7.43v-7.6c-4,3.11-7.52,4.49-11.75,4.49-10.11,0-16.24-6.65-16.24-18v-9.59c0-11.4,6.13-18,16.15-18,4.58,0,8.47,2,12.61,5.45l.52-4.32H1165v47.41c0,8.9-5.27,14.42-15.11,14.42h-12.09Zm.35-29.88c0,8.46,2.76,12.44,9.32,12.44,3.89,0,7-1.91,10.63-4.58V563.72c-3.29-2.68-6.83-5.1-10.63-5.1-6.56,0-9.32,4.06-9.32,12.44Z"/><path class="cls-3" d="M194.48,711.18c88.17-22.75,152.51-26,196.2-24.28,30,1.17,60,5.05,93.52-.46,36.24-6,46.05-17.91,77.26-17.87,22.63,0,27.21,6.31,44.73,5,29.73-2.17,33.83-21.5,61-22,9.34-.18,11.74,2,21.69,1.37,17.66-1.22,17.38-8.75,32.53-10.54,19.17-2.26,31.55,8.41,59.64,8.25s36.59-10.85,61-9.62c16.57.83,15.54,5.91,36.59,8.24,22.88,2.54,29.88-2.81,58.29-1.37,28.73,1.46,37.81,7.76,54.22,5.5,9.89-1.36,12.84-4.51,25.75-5,8.19-.34,9.13.84,17.62.91,20.83.18,39.56-6.71,47.44-9.62,9.29-3.42,9.65-4.75,16.27-5.5,10.82-1.21,16.79,1.57,31.18,1.38,14.68-.19,16-3.19,29.82-4.12,22.9-1.55,30.61,5.93,51.5,5,18.15-.78,15.91-6.57,50.16-14.21,13.2-2.94,16.55-2.75,37.95-7.33,22.14-4.73,22.05-5.69,31.17-7.33,43.46-7.83,115.38,1.14,123.35,10.08.93,1,2.83,4.16,9.49,5,6,.79,9.53-1,14.91-.46,9.41,1,5.24,7.33,17.62,12.37,6.37,2.6,8.93,1.52,20.33,4.58,20.71,5.56,14.63,9.74,31.18,13.29,14,3,24,1.26,36.6,5.5,5.5,1.85,4.68,2.56,9.49,4.12,13,4.24,32.72,3.58,42,3.67,16.67.16,40.16,3.11,69.69,15.58V719H194.48Z"/><path class="cls-3" d="M1260.39,823.15H828.69Q414.36,765.94,0,708.76V560.84a52.4,52.4,0,0,0,15.47-2.45c17.25-5.78,12.17-16.07,34-25.81,12-5.37,14.32-2.59,21.25-7.59,13.44-9.72,10.73-24.6,20.32-25.59,5.48-.58,8.58,4.05,14.7,3.08,6.8-1.09,9.41-7.87,10.57-10.11,10-19.16,83.43-29.61,124.81-5.91,8.68,5,8.37,7.11,29.28,20.86,20.21,13.31,23.57,13.33,36,21.81,26.48,18,28.84,29.9,38.7,35.91a26.26,26.26,0,0,0,7.86,3.11c20.54,4.89,29.91-11,52.3-4.35,13.49,4,14.13,11,28.68,13.43,14.24,2.4,20.8-3.07,31.27,1.17,6.41,2.59,6.46,5.67,14.9,14.68,7.16,7.64,24.18,25.83,44.91,28.29,8.46,1,9.65-1.55,17.71.33,12.7,3,14.92,10.51,24.43,14.95,15.78,7.35,26.23-5.66,55.1-5,28.54.63,34.27,13.71,57.57,11.1,21.45-2.38,21.58-14,38.23-13.65,14.42.34,22.47,9.22,32.29,17.39h0c6.9,5.71,14.65,11,26.08,12.76,27.86,4.21,42.59-18.24,61.11-10.49,6.69,2.81,9.91,7.88,13.09,13.06,3.75,6.15,7.45,12.45,16.82,15.26,9.71,2.9,12.61-1.81,21.84-.14a24.84,24.84,0,0,1,12.81,6.58c9.31,8.63,14.49,23.63,22.69,35.49,5,7.25,11.15,13.33,20,16.08,17.12,5.29,23.11-8.31,45.57-5.28,31,4.18,38,32.57,72.66,51.05,32,17.08,62.68,12.39,92.78,13.85C1183.18,796,1218,802.79,1260.39,823.15Z"/><path class="cls-3" d="M1727.39,606V823.15H1679.3L1155.89,761q1.83-21,3.65-42,1.55-17.75,3.08-35.49,1-10.85,1.88-21.68l0,0c13.19-12.4,25-20.5,35.41-25.59,14.38-7.05,26.18-8.39,35.55-7.54.64.06,1.32.14,2,.23,9.6,1.11,26.85,3.94,39.44-5.08a24.82,24.82,0,0,0,5.57-5.59,26.18,26.18,0,0,1,4.56-4.21c13.16-9.75,22.47-4,36.66-10.31,16.83-7.49,11.91-19.21,33.2-31.5,11.24-6.49,13.77-3.91,19.88-9,.27-.23.55-.46.84-.73,13.13-11.9,10.54-29.06,19.89-30.65,5.34-.91,8.35,4.34,14.31,2.92,6.64-1.57,9.2-9.57,10.34-12.21,9.75-22.7,81.38-38.14,121.62-12.46,8.45,5.39,8.15,7.89,28.48,23,19.66,14.53,22.94,14.42,35,23.71,31.37,24.09,27.88,39.14,45.26,43.26,20,4.76,29.19-14.11,51-7.39C1715.33,596.18,1717.05,603,1727.39,606Z"/><rect class="cls-3" y="661.79" width="1727.39" height="201.9"/><path class="cls-2" d="M449.19,774.62c0-35.37,40-39.15,40-57.1,0-5-2.16-11.07-12.56-11.07-6.88,0-13.23,2.43-19.84,5.53l-5.81-14.58c8.78-4.18,17.15-6.88,25.92-6.88,19.44,0,31.46,11.34,31.46,27,0,27.67-39.83,33.88-39.83,53.32h40V783a3.26,3.26,0,0,1-3.51,3.51H449.19Z"/><path class="cls-2" d="M521.55,729c0-23.76,12.15-38.47,33.61-38.47,21.74,0,33.62,15.39,33.62,38.47v20.66c0,23.75-11.88,38.6-33.62,38.6-21.46,0-33.61-15.39-33.61-38.6Zm48.06,18V731.69c0-15.12-3.51-25.24-14.45-25.24s-14.44,10-14.44,25.24V747c0,15.25,3.37,25.37,14.44,25.37S569.61,762.2,569.61,747Z"/><path class="cls-2" d="M614.83,738.44c-6.61-4.32-11.61-10.66-11.61-21.6,0-15.93,13.77-26.32,30.11-26.32,15.79,0,30.1,10.26,30.1,26.32,0,9.86-5,15.53-11.47,19.71,7.83,4.86,14,12,14,25,0,15.79-13.9,26.72-32.66,26.72-18.36,0-32.67-10.93-32.67-26.72C600.66,749.65,607,743.17,614.83,738.44Zm18.5,33.88c9.85,0,13.5-5.8,13.5-10.79,0-8.1-6.89-11.75-15.12-15.12-6.75,3.37-11.88,7.56-11.88,15.12C619.83,766.52,623.61,772.32,633.33,772.32Zm10.93-55.48c0-5-3.51-10.39-10.93-10.39s-10.94,5.4-10.94,10.39c0,6.08,5.54,9,12.56,12C640.35,726,644.26,722.51,644.26,716.84Z"/><path class="cls-2" d="M680.71,742H728.5v15H680.71Z"/><path class="cls-2" d="M782.77,708.2H741.06V692.27h62.63v11.88c-10.66,30.38-25.78,44.42-25.78,82.35H758.2C758.74,750.05,771.56,734.93,782.77,708.2Z"/><path class="cls-2" d="M819.35,771h19.17V711.44l-17.41,7.16-6.75-14.72,29.43-11.61h13.63V771h15.79V786.5H819.35Z"/><path class="cls-2" d="M886.45,767.19c7.69,2.57,14,5.13,22,5.13,11.88,0,16.87-8.5,16.87-17,0-8-3.91-15.39-14.58-15.39a44.84,44.84,0,0,0-18.35,4.18l-6.62-10.39V692.27h54.81l-1.08,15.66H903.05v17.28a48.19,48.19,0,0,1,8.77-.81c20.79,0,32.67,12.42,32.67,30.92,0,20.38-15.52,32.93-36.31,32.93-9.59,0-16.47-2.16-25.65-5.67Z"/><path class="cls-2" d="M959.07,742h47.79v15H959.07Z"/><path class="cls-2" d="M1061.13,708.2h-41.71V692.27h62.64v11.88c-10.67,30.38-25.79,44.42-25.79,82.35h-19.71C1037.1,750.05,1049.93,734.93,1061.13,708.2Z"/><path class="cls-2" d="M1094.21,767.19c7.69,2.57,14,5.13,22,5.13,11.88,0,16.88-8.5,16.88-17,0-8-3.92-15.39-14.58-15.39a44.85,44.85,0,0,0-18.36,4.18l-6.62-10.39V692.27h54.81l-1.08,15.66h-36.45v17.28a48.29,48.29,0,0,1,8.78-.81c20.79,0,32.66,12.42,32.66,30.92,0,20.38-15.52,32.93-36.31,32.93-9.58,0-16.47-2.16-25.65-5.67Z"/><path class="cls-2" d="M1163.6,769a46.3,46.3,0,0,0,17.41,3.37c11.34,0,15.12-6.48,15.12-13.49,0-9.32-5-14-16.6-14h-7.7V729.53h6.75c12.69,0,15-6.48,15-12.15,0-5.26-3.51-10.93-12.29-10.93a40.92,40.92,0,0,0-16.06,3.37L1160,695.65a49.87,49.87,0,0,1,21.33-5.13c17.28,0,31.45,8.91,31.45,26.19,0,6.21-3.51,14.58-12.41,20,10.52,5,15,13.9,15,22.14,0,16.06-11.21,29.42-34.29,29.42a58.69,58.69,0,0,1-21.73-4.18Z"/><path class="cls-2" d="M1227.31,769a46.39,46.39,0,0,0,17.42,3.37c11.34,0,15.12-6.48,15.12-13.49,0-9.32-5-14-16.61-14h-7.69V729.53h6.75c12.69,0,15-6.48,15-12.15,0-5.26-3.51-10.93-12.28-10.93a41,41,0,0,0-16.07,3.37l-5.26-14.17a49.84,49.84,0,0,1,21.33-5.13c17.28,0,31.45,8.91,31.45,26.19,0,6.21-3.51,14.58-12.42,20,10.53,5,15,13.9,15,22.14,0,16.06-11.21,29.42-34.29,29.42a58.78,58.78,0,0,1-21.74-4.18Z"/></g></g></svg>