<svg xmlns="http://www.w3.org/2000/svg" viewBox="0 0 814.04 534.28"><defs><style>.cls-1{fill:#231f20;}.cls-2{fill:#808285;}.cls-14,.cls-3{fill:#fff;}.cls-4{fill:#20c786;}.cls-5{fill:#1c7b80;}.cls-6{fill:#005b63;}.cls-7{fill:#1487e0;}.cls-8{fill:#00b7c7;}.cls-13,.cls-17,.cls-9{fill:none;}.cls-9{stroke:#0fc;stroke-width:8.45px;stroke-dasharray:4.28 21.4;}.cls-13,.cls-9{stroke-miterlimit:10;}.cls-10{fill:#0fc;}.cls-11{fill:#87e8a5;}.cls-12{fill:#5c45d9;}.cls-13{stroke:#939598;stroke-width:4.23px;}.cls-14{font-size:97.93px;font-family:SweetSquarePro-Bold, Sweet Square Pro;font-weight:700;}.cls-15{letter-spacing:-0.01em;}.cls-16{letter-spacing:-0.01em;}</style></defs><g id="Layer_2" data-name="Layer 2"><g id="Layer_1-2" data-name="Layer 1"><rect class="cls-1" width="814.04" height="534.28"/><circle class="cls-2" cx="407.02" cy="209" r="128.24"/><path class="cls-3" d="M414.76,143.25a65.34,65.34,0,0,0-7.72-.45,66.2,66.2,0,0,0-21.16,3.47,65.06,65.06,0,0,0-21.17,11.86,66,66,0,0,0-21.31,32.64v0a64.71,64.71,0,0,0-2.58,18.2,66.2,66.2,0,1,0,73.94-65.77Zm0,0a65.34,65.34,0,0,0-7.72-.45,66.2,66.2,0,0,0-21.16,3.47,65.06,65.06,0,0,0-21.17,11.86,66,66,0,0,0-21.31,32.64v0a64.71,64.71,0,0,0-2.58,18.2,66.2,66.2,0,1,0,73.94-65.77Zm5.93-50.39A111.83,111.83,0,0,0,407,92.07a117,117,0,0,0-74.77,27.05,116.89,116.89,0,1,0,88.42-26.26Zm15.93,212.3A99.07,99.07,0,0,1,407,309.61,100.66,100.66,0,0,1,306.45,209a98.66,98.66,0,0,1,3.91-27.69A100.58,100.58,0,1,1,436.62,305.16ZM414.76,143.25a65.34,65.34,0,0,0-7.72-.45,66.2,66.2,0,0,0-21.16,3.47,65.06,65.06,0,0,0-21.17,11.86,66,66,0,0,0-21.31,32.64v0a64.71,64.71,0,0,0-2.58,18.2,66.2,66.2,0,1,0,73.94-65.77Z"/><path class="cls-4" d="M507.63,209a100.62,100.62,0,0,1-71,96.14l-10.14-32.89A66.15,66.15,0,0,0,473.21,209Z"/><path class="cls-5" d="M436.62,305.16A99.07,99.07,0,0,1,407,309.61a100.5,100.5,0,0,1-93.32-63.1l31.85-12.81a66.26,66.26,0,0,0,80.91,38.57Z"/><path class="cls-6" d="M345.57,233.7l-31.85,12.81a100.17,100.17,0,0,1-3.36-65.18l33,9.44v0a64.71,64.71,0,0,0-2.58,18.2A66.16,66.16,0,0,0,345.57,233.7Z"/><path class="cls-7" d="M385.88,146.27a65.06,65.06,0,0,0-21.17,11.86l-22-26.45a100.35,100.35,0,0,1,32.2-18Z"/><path class="cls-8" d="M418.76,109.13l-4,34.12a65.34,65.34,0,0,0-7.72-.45,66.2,66.2,0,0,0-21.16,3.47l-11-32.59A99.8,99.8,0,0,1,407,108.43,100.9,100.9,0,0,1,418.76,109.13Z"/><circle class="cls-1" cx="407.04" cy="209.02" r="53.78"/><circle class="cls-9" cx="407" cy="209" r="40.87"/><circle class="cls-10" cx="407.04" cy="209.02" r="23.38"/><path class="cls-11" d="M507.63,209H473.21a66.25,66.25,0,0,0-58.45-65.77l4-34.12A100.56,100.56,0,0,1,507.63,209Z"/><path class="cls-12" d="M364.71,158.13a66,66,0,0,0-21.31,32.64l-33-9.44a100.27,100.27,0,0,1,32.34-49.65Z"/><polyline class="cls-13" points="407 80.75 407 92.08 407 98.21"/><polyline class="cls-13" points="363.14 88.47 367.05 99.2 369.12 104.94"/><polyline class="cls-13" points="324.62 110.72 331.94 119.43 335.84 124.13"/><polyline class="cls-13" points="295.98 144.9 305.82 150.53 311.12 153.6"/><polyline class="cls-13" points="280.75 186.73 291.93 188.66 297.96 189.75"/><polyline class="cls-13" points="280.75 231.24 291.88 229.31 297.96 228.22"/><polyline class="cls-13" points="295.98 273.13 305.77 267.44 311.12 264.38"/><polyline class="cls-13" points="324.62 307.25 331.88 298.55 335.84 293.85"/><polyline class="cls-13" points="363.14 329.5 367 318.92 369.12 313.09"/><polyline class="cls-13" points="407 337.22 407 325.94 407 319.76"/><polyline class="cls-13" points="450.87 329.5 447.01 318.87 444.89 313.09"/><polyline class="cls-13" points="489.44 307.2 482.22 298.6 478.22 293.85"/><polyline class="cls-13" points="518.03 273.08 508.33 267.49 502.94 264.38"/><polyline class="cls-13" points="533.26 231.24 522.18 229.31 516.1 228.22"/><polyline class="cls-13" points="533.26 186.73 522.18 188.66 516.1 189.75"/><polyline class="cls-13" points="518.03 144.9 508.29 150.53 502.94 153.6"/><polyline class="cls-13" points="489.44 110.77 482.12 119.43 478.22 124.13"/><polyline class="cls-13" points="450.87 88.47 447.01 99.1 444.89 104.94"/><text class="cls-14" transform="translate(199.91 438.69)">at<tspan class="cls-15" x="95.38" y="0">a</tspan><tspan x="151.2" y="0">Scibo</tspan><tspan class="cls-16" x="420.99" y="0">r</tspan><tspan x="459.86" y="0">g</tspan></text><path class="cls-3" d="M181.58,375.18H132.22v12.15H175l5.29,5.48v28.7L175,427.09H150.86v12h30.72L194.41,426v-37.7Z"/><rect class="cls-8" x="132.22" y="392.59" width="14.29" height="46.92"/><rect class="cls-11" x="113.57" y="401.21" width="14.29" height="38.3"/><rect class="cls-4" x="94.92" y="416.05" width="14.29" height="23.46"/><line class="cls-17" x1="146.32" y1="428.7" x2="132.22" y2="428.7"/></g></g></svg>